<svg width="42" height="48" viewBox="0 0 42 48" fill="none" xmlns="http://www.w3.org/2000/svg">
<path d="M42 36C39.3731 36 39.0694 33 35.0156 33C30.9441 33 30.6258 36 28.0078 36C25.4114 36 25.059 33 21 33C16.9836 33 16.5733 36 14.0156 36C11.3767 36 11.0904 33 7.00781 33C2.92528 33 2.63409 36 0 36V28.5C0 26.0156 2.01562 24 4.5 24H6V10.5H12V24H18V10.5H24V24H30V10.5H36V24H37.5C39.9844 24 42 26.0156 42 28.5V36ZM42 48H0V39C4.06462 39 4.38441 36 7.00781 36C9.62822 36 9.93778 39 14.0156 39C18.0322 39 18.4422 36 21 36C23.6389 36 23.9251 39 28.0078 39C32.0725 39 32.3922 36 35.0156 36C37.5926 36 37.9455 39 42 39V48ZM9 9C7.33594 9 6 7.66406 6 6C6 3.09375 9 3.84375 9 0C10.125 0 12 2.76562 12 5.25C12 7.73438 10.6641 9 9 9ZM21 9C19.3359 9 18 7.66406 18 6C18 3.09375 21 3.84375 21 0C22.125 0 24 2.76562 24 5.25C24 7.73438 22.6641 9 21 9ZM33 9C31.3359 9 30 7.66406 30 6C30 3.09375 33 3.84375 33 0C34.125 0 36 2.76562 36 5.25C36 7.73438 34.6641 9 33 9Z" fill="#44423F"/>
</svg>
