<svg width="48" height="48" viewBox="0 0 48 48" fill="none" xmlns="http://www.w3.org/2000/svg">
<path d="M24 0.75C11.1562 0.75 0.75 11.1562 0.75 24C0.75 36.8438 11.1562 47.25 24 47.25C36.8438 47.25 47.25 36.8438 47.25 24C47.25 11.1562 36.8438 0.75 24 0.75ZM29.3531 33.5719L21.0844 27.5625C20.7937 27.3469 20.625 27.0094 20.625 26.6531V10.875C20.625 10.2563 21.1313 9.75 21.75 9.75H26.25C26.8687 9.75 27.375 10.2563 27.375 10.875V23.7844L33.3281 28.1156C33.8344 28.4812 33.9375 29.1844 33.5719 29.6906L30.9281 33.3281C30.5625 33.825 29.8594 33.9375 29.3531 33.5719Z" fill="#44423F"/>
</svg>
