<svg width="42" height="48" viewBox="0 0 42 48" fill="none" xmlns="http://www.w3.org/2000/svg">
<g clip-path="url(#clip0)">
<path d="M12.0076 38.9962C12.0076 42.312 9.31959 45 6.00375 45C2.68791 45 0 42.312 0 38.9962C0 35.6803 2.688 32.9923 6.00384 32.9923C9.31969 32.9923 12.0076 35.6804 12.0076 38.9962ZM28.4757 43.4259C27.6925 28.9321 16.0834 17.3083 1.57416 16.5243C0.71775 16.478 0 17.1661 0 18.0238V22.5302C0 23.3191 0.608437 23.9807 1.39566 24.0319C11.8799 24.7148 20.2838 33.0977 20.968 43.6043C21.0193 44.3915 21.6809 44.9999 22.4697 44.9999H26.9762C27.8339 45 28.522 44.2823 28.4757 43.4259ZM41.9991 43.4529C41.2121 21.5323 23.5748 3.79176 1.54716 3.00097C0.700594 2.9706 0 3.65451 0 4.50154V9.00791C0 9.8165 0.640781 10.4746 1.44872 10.5078C19.3717 11.2427 33.7575 25.6312 34.4923 43.5514C34.5254 44.3593 35.1835 45.0001 35.9922 45.0001H40.4986C41.3455 45 42.0294 44.2994 41.9991 43.4529Z" fill="#44423F"/>
</g>
<defs>
<clipPath id="clip0">
<rect width="42" height="48" fill="#44423F"/>
</clipPath>
</defs>
</svg>
